<svg width="35" height="35" viewBox="0 0 35 35" fill="none" xmlns="http://www.w3.org/2000/svg">
<path d="M19.6875 30.625C22.2834 30.625 24.821 29.8552 26.9794 28.413C29.1378 26.9708 30.82 24.921 31.8134 22.5227C32.8068 20.1244 33.0667 17.4854 32.5603 14.9394C32.0539 12.3934 30.8038 10.0548 28.9683 8.21923C27.1327 6.38366 24.7941 5.13363 22.2481 4.6272C19.7021 4.12077 17.0631 4.38069 14.6648 5.37409C12.2665 6.36749 10.2167 8.04975 8.77446 10.2081C7.33227 12.3665 6.5625 14.9041 6.5625 17.5V24.2813L2.625 20.3438L1.09375 21.875L7.65625 28.4375L14.2187 21.875L12.6875 20.3438L8.75 24.2813V17.5C8.75 15.3368 9.39147 13.2221 10.5933 11.4235C11.7951 9.62479 13.5033 8.22291 15.5019 7.39507C17.5005 6.56724 19.6996 6.35064 21.8213 6.77267C23.943 7.19469 25.8918 8.23639 27.4215 9.76602C28.9511 11.2957 29.9928 13.2445 30.4148 15.3662C30.8369 17.4879 30.6203 19.687 29.7924 21.6856C28.9646 23.6842 27.5627 25.3924 25.764 26.5942C23.9654 27.796 21.8507 28.4375 19.6875 28.4375V30.625Z" fill="white"/>
</svg>
